<?xml version="1.0" encoding="UTF-8" standalone="no"?>
<svg xmlns="http://www.w3.org/2000/svg" height="26px" width="26px" version="1.1" xmlns:xlink="http://www.w3.org/1999/xlink" viewBox="0 0 26 26"><!-- Generator: Sketch 52.2 (67145) - http://www.bohemiancoding.com/sketch -->
 <title>Group 7</title>
 <desc>Created with Sketch.</desc>
 <g id="Page-1" fill-rule="evenodd" fill="none">
  <g id="Artboard-Copy-3" transform="translate(-1180 -324)">
   <g id="Group-9" transform="translate(612 124)">
    <g id="Group-8" transform="translate(466 201)">
     <g id="Group-7" transform="translate(103)">
      <circle id="Oval" stroke-width="1.6154" cy="12" stroke="#282456" cx="12" r="12"/>
      <path id="+" fill="#282456" d="m12.006 18c-0.59 0-0.975-0.446-0.975-1.037v-4.231h-3.9959c-0.5898 0-1.0351-0.385-1.0351-0.976s0.4453-0.976 1.0351-0.976h3.9959v-4.2434c0-0.5906 0.385-1.0366 0.975-1.0366s0.975 0.446 0.975 1.0366v4.2434h3.984c0.59 0 1.035 0.385 1.035 0.976s-0.445 0.976-1.035 0.976h-3.984v4.231c0 0.591-0.385 1.037-0.975 1.037z"/>
     </g>
    </g>
   </g>
  </g>
 </g>
</svg>
