<svg xmlns="http://www.w3.org/2000/svg" viewBox="0 0 360 265"><g fill="none" fill-rule="evenodd"><path fill="#74DEC5" d="M153 111.3c-3.9 3-3.3 8.6-2.1 12.7 1.7 6.1 5.1 11.7 9 16.6 7 8.6 18.8 18.2 29.6 10.7 9.7-6.7 15.8-20.3 17.9-31.7.6-3.6 1.5-8.8-1.6-11.5-4.5-4-12.5-3.2-18-2.7-3.5.3-7 1.5-10.5 1a32.8 32.8 0 00-24.3 5"/><g fill="#282456"><path d="M320 156.6c-7.9 10.3-21.2 11.9-33.1 11.8a105.5 105.5 0 01-32.4-5.3c-2.4-.8-6-1.2-7-3.9-2.7-7-.7-15.8.4-22.9l1.6-10.9c.3-2.3.5-4.9 1.4-7 1.1-2.6 2.5-2 4.8-1.3 3.2 1 6.5 1.3 9.8 1.8a120 120 0 0143.1 19.6c3.3 2.5 6.2 5.3 8.8 8.5 2 2.5 5 6.4 2.6 9.6m-34.4 45.6c0 1.2-12.3-2.2-14-2.6a175.2 175.2 0 01-31.5-9.7 79 79 0 01-34.4-27.1c-1.5-2-3.5-1.7-5.2-3.4-1.5-1.4-2.6-2.6-2.2-4.8 3.8 1 10.6 7.4 14.5 4.2 2.2-1.9-.9-3.8-2.3-4.8-2.6-2-4.9-4.5-7-7 3.6.7 7 2 10.1 4 1.4.9 6.2 4 7.3 1 .7-1.8-2.6-4.1-3.6-5.1a27.6 27.6 0 01-6.4-8.8c3.2-.8 6.3 1.8 8.5 4 2.5 2.3 5.5 4.8 7.5 7.5 1.1 1.4 1.3 3 2.2 4.5 1 1.7 2.4 3.2 3.8 4.4 2.8 2.4 6 4.2 9.3 5.7 7.6 3.3 15.7 5.7 23.8 7.4 4 .8 7.8 1.2 11.8 1.3 3.1.1 4.5 1 5.7 4 3.2 8 2.6 16.9 2.1 25.3m-92.5-61c-1.8 1.7-4.2 2.8-6 4.4-1.7 1.5-3.6 3-5.5 4.3-2 1.2-3.4.3-5.2-.8-2.1-1.4-4.5-2-6.7-3.1-7.4-4.2-16.5-14.4-15.1-23.8.6-4 2.6-8 6.2-9.7 3.3-1.7 8-2.6 11.6-1.2 2 .8 3.4 2.5 4.7 4.1 1.5 2 2 1.7 3.5-.2 2.7-3.4 7.2-6.3 11.6-6.3 2.2 0 4.4.6 6.4 1.5l.6.6c.4.2 1-.1 1.1 0 .6.4 1.2 1.6 1.5 2.2 1.4 2.4 3.8 7 1.3 9.1 0 0 .2 2.7.1 3-.2 1.7-.7 3-1.4 4.5-2.1 4.5-5.2 8-8.7 11.3m3.6 38c-1.8.5-3.6-5-2-6 1.6-.8 3.5 5.4 2 6m-26.9-6.7c-.6 2.1-.8 4.5-2.3 6.2-1.3-1.6-1.4-4.6-.1-6.3.7-1 3-2.1 2.4.1m54.7-36.5s2 1 1 2.2c-1.3 1.5-1.1-1.5-1-2.2m8.5-17c0 2-4.3 1.6-4.3-.5 0-2.7 4.4-1.8 4.3.5m-5.1-17.7c.4-1.9 8-4.6 7.7-1.2 0 1.7-8.6 5.3-7.7 1.2m-77.2 65.5c-.9 1-2 1.5-3 2.3-1.2.8-2 2-2.8 3-2.6 2.6-5.6 4.9-8.4 7.4-5 4.6-9.9 9.5-15.5 13.4-10 7-21.6 10.7-33 14-1 .3-3.8 1.4-4.7.6-1-.9-.5-4-.5-5.2.2-4.9.8-9.8.7-14.7 0-2-.6-4.8.4-6.7 1.1-2 4.3-2.6 6.3-3.4 5.9-2.3 11.6-6.3 16.8-10 6.5-4.4 13-9 19.6-13.1a91.1 91.1 0 0120.9-9.2c.3.7-3.2 3-3.6 3.3-1.8 1.6-3.9 3.2-5.3 5.3-1 1.5-2 4.8.7 5 1.4 0 3.3-1.4 4.5-1.8 2-.7 4-1.2 6.2-1.5-1.8 2-8 5.7-6.8 9 1 3.3 7.3-.5 9.4-.5-.3 1.1-1.2 2-2 2.8M77.4 176c-4 1.5-8 2.3-12.1 3.2a32 32 0 01-11.6 1c-5.5-.7-11.6-3-12.3-9.5-.9-7.7 4.4-14.8 9-20.3A127.3 127.3 0 0190 118c5.8-3.1 12.3-5 18.3-7.3 1.2-.4 4.4-2 5.5-.7.8 1-.3 2.8-.7 3.7-.8 1.9-1 3.8-1.1 5.8-1 9-2 18-2.5 27-.1 2.4-.4 5-.2 7.5 0 1.4.7 3.2.3 4.6-1 2.6-5 4.3-7.2 5.5-4 2-8 3.6-12 5.6-4.3 2.2-8.5 4.6-13 6.2m55-58.2c1.2-.2 2.8-.5 3.8.3 1.2 1 .9 2.2-.3 3-.9.5-3 .6-4 .1-1.5-.8-1.3-3.1.6-3.4m6 20.7c-.9 1.6-4.1 2.6-3.8-.3.2-2.4 5.4-2.4 3.8.3m-1.2-42.6c1.4.5 4 1 4.4 2.9.4 1.7-1.2 1.6-2.4 1.1-1-.3-5.2-4-2-4m222.1 66.8c-.8-3.4-.2-7-.6-10.5-.5-3.3-1.3-6.3-2.4-9.4-2.5-6.9-5.4-13-9.5-19.1a126.3 126.3 0 00-62.7-49.3c-13.3-5-26.7-6.7-40.8-7.6-4.1-.3-8.3-.6-12.5-1.2-3-.4-6.9-.9-9.9 0-1.9.7-3 2.4-.9 3.5 1.5.8 3.4.9 5 1.1A37 37 0 01215 87.3c-5 4.3-11.5 5.8-17.7 6.9a44 44 0 01-10.5.8c-2.2-.2-3.9-1.2-4.7 1-.6 1.7-1 3.4-1.7 1-1-2.8-1.4-2.8-4.4-3.6-6-1.7-12.8-3.2-18-6.8-5.5-3.7-7.4-9.7-10.4-15.2-.7-1.4-3-4.2-1.8-5.8 1-1.4 4.5-1.3 6-1.4l5-.3c1 0 3 .4 2.5-1-.6-2.3-6.8-2-8.4-2a64 64 0 00-8.7.3 258.4 258.4 0 00-42.5 8.6 162.1 162.1 0 00-72.3 42.9 73.9 73.9 0 00-13.2 78.2c6 13.2 19 18.6 31.6 23a54.1 54.1 0 0020.8 3.6c3.4-.2 6.6-1.1 10-1.8 1.4-.3 3-.8 4.5-.7 1.1.1 2.2 1.2 3.3.6.7-.4 1-1.6 2-2 1-.6 2.4-.8 3.6-1.1 3.3-.9 6.5-2.2 9.7-3.3 3.3-1.1 6.4-2.6 9.6-4 1.7-.8 5.4-3.9 6.4-1.6.5 1 .3 3 .4 4a178.7 178.7 0 002.7 17.7c1.3 7.3 3 14.3 5.7 21.2 2.2 5.5 4.1 11.7 8.2 16a7 7 0 006.8 2.2c3-.7 4.4-3.4 6.2-5.6a30.5 30.5 0 0116.2-10c7.3-1.6 14.4.8 21.3 2.9 7.3 2.1 14.8 4.2 22 6.8 6.7 2.4 14 6 21.3 5.7 6.3-.3 12.2-5.6 16.8-9.7 4.6-4 10.4-10 17-9.6 3.3.3 6.3 2 9.5 2.6 3.5.7 7.2.8 10.8 1 4.4.4 14.3-.8 16-6.3.2-.8.2-2.5-.8-2.8-1-.3-1.5.9-2.4.8-1.9-.1-3.3-3.4-4.3-4.7-4.1-5.2-9.8-9.1-14.4-13.8-5.2-5.3-9.6-11.8-13.5-18.1 1.7-.5 3.7.3 5.4.7 2 .4 4 1 6.1 1.6l6.9 1.6c1.7.3 4 .4 5.5 1.3 1.4.8 2.1 1.6 3.8 1.8 1.7.3 3.5 0 5.2 0 4.6 0 9.2 0 13.8-.6 16.3-1.7 33.6-8.9 43.4-23 2.7-3.8 4.8-8 6.2-12.6 1-3.5 2.9-8.4 2-12.1"/><path d="M206.6 0C211 0 215 1.4 219 2.9c3.5 1.3 7.3 2.5 10 5.1 5.2 4.7 6.5 12.5 7.4 19.1 1 8.4-2.5 15.3-5.4 22.8-2.7 7-7.7 12.8-13.7 17.1a36.2 36.2 0 01-10.1 4.9c-3.7 1.2-7.3 2.8-11.2 2.8-6 0-13.5-3-16-9-1.2-2.7-.1-3.2 2.2-1.7 3.4 2.2 6.6 4.5 10.5 5.5 7.6 1.8 16.7-1 23.3-4.9A33.1 33.1 0 00230.1 48a40 40 0 003-22c-1-6.6-3-12.7-8.7-16.2a33.8 33.8 0 00-40.2 2.9l-4.6 4c-1 .9-2.1 1.9-2 3.3.1 1.2 2.7 6-.4 4.5-2.5-1.1-3.8-3.5-6.9-3.8-3.2-.3-7 2.3-8 5.5a9 9 0 003.3 9c1.6 1 3.3 1 5.1.9 1 0 3.4-.4 4 .6 1 1.7-2.6 3.6-3.8 4a7 7 0 01-8-2.9 20.1 20.1 0 01-3.1-9c-.2-3.2.5-6.3 2.2-8.9 2-2.7 5.8-5.7 9.2-4.8 1.5.4 2.7 2 4.2 2.3.9.2.5.4 1.3-.3.5-.5 1-1.3 1.4-1.9 2.6-3 5.1-6.3 8.3-8.7A32.8 32.8 0 01206.6 0zM191 60.7c.7-1.6 2 1.3 2.3 1.8.7 1 2.4 1.7 2.3 3 0 2.4-3.2 2-4.2.7-1.1-1.3-1-3.9-.4-5.5zm22-11c1.6 2.6-.4 5.5-1.8 7.9-1.2 2.2-2.4 4.8-3.8 7-2.5 3.4-7.8-.4-8-4 0-2.8 1.9-1.6 3.1-.5 1.3 1 1.9 1.3 3.2.1 2.6-2.3 3.8-6.2 5.7-9.2.3-.6 1-1 1.5-1.3zm4.7.8c.4 1.3-.5 4.7 2 4.4 1.4-.2 1.7-2.2 2.4-3.1 2.4-3 1.7 2.6 1 4-1.4 3.2-5.3 5.3-7.3 1.4a7.6 7.6 0 01-.3-5c.2-.8 1.4-4 2.2-1.7zm-22.3-6.1c-.2 1.5-1.6 4.5 0 5.6 1.5 1 4.1-1.1 5.2-2 1.2-.9 3.9-3.4 4-.3 0 1.7-1.5 3.6-2.7 4.6-2.4 2-7.4 3.8-9.1 0-1-2-.5-5 .2-7 .5-1.7 3-4.5 2.4-.9zm31.5-8.3c1 1.2 3.3 3.8 2 5.5-1.4 2-3.8-1.6-4.8-2.6-.8-1-2.6-3.5-1.9-4.8 1.3-2.3 3.8 1 4.7 2zm-15.4-5c3.2 2.2-1 3.7-2.8 3.9-2.2.2-5 .4-7-.7-3-1.6-2-4 .8-4.6 2.9-.6 6.5-.3 9 1.4zM170 24.3c2.3.4 5 1 5.8 3.7.8 2.7-.4 3.6-2.8 3-2.2-.6-5.5-1.1-6.8-3.4-1.5-2.6 1.6-3.8 3.8-3.3zM40.5 83c-.8 2.6-4.8 4.4-6.8 6a232 232 0 00-20.1 17.8c-3.3 3.3-5.7 7.3-8.6 11-.7.9-1.9 2.9-3.3 2.7-1.4-.2-1.7-2.9-1.7-4 .2-4 3.7-7.8 6.1-10.5a101.8 101.8 0 0119.6-17c3.7-2.6 7.2-5.5 11-7.8 1.8-1 4.7-1.4 3.8 1.8zM284 58c3 .1 5.8 1.1 8.5 2a168.6 168.6 0 0145.7 26c1.8 1.5 3.7 2.7 5.7 3.9 1.3.8 3 1.7 3.6 3.3 1.2 4-5 0-6-.6l-1.2-.8a256.8 256.8 0 00-58.4-30.3c-1.1-.4-1.4-1.4-.9-2.5.7-1 2-1 3-1zM39.6 66.4c-.1 1.2-1.5 1.5-2.4 1.8-3.3 1.5-6.8 2.7-10.1 4.2-6.2 2.8-11.9 6.7-18.4 8.8-1.5.5-1.7-1-1.3-2.1.5-1.2 1.8-2 2.7-2.7 2.8-2 6-3.3 9-4.7 3-1.3 6.2-2.4 9.3-3.5 3-1 6.3-3 9.4-3.1h.1c1 0 1.9-.2 1.7 1.3zm249.7-18.5c-3-.8-.2-2.8 1.6-2.6 2 .1 3.9 1 5.7 1.7 5.7 1.7 11 3.7 16.3 6.4.8.4 4.3 2.3 2 3.2-1.6.6-5.3-2-6.7-2.6-6-2.7-12.6-4.2-18.9-6z"/><path d="M171.1 54.2c.4-1.1 5-13.4 3.2-13.8-2-.3-4.5 6.8-5 8a70.3 70.3 0 00-5.2 25.8c.2 2.8 1.3 3.2 3.1 4.9 0-8.5 1.3-16.9 3.9-24.9"/></g></g></svg>