<svg xmlns="http://www.w3.org/2000/svg" viewBox="0 0 76 90"><g fill="none" fill-rule="evenodd" opacity=".8"><text fill="#E76C60" font-family="SecretTypewriter, Secret Typewriter" font-size="11.5" letter-spacing=".6" transform="rotate(-11 60 1)"><tspan x="18" y="17.5">Made</tspan> <tspan x="25.4" y="37.5">In </tspan> <tspan x="11.1" y="57.5">Jhalwa</tspan></text><path fill="#F59086" d="M71.6 78.4l2.6-.5-.4-2.1c-1.7.2-3.2-1-3.6-2.6-.3-1.6.7-3.2 2.4-3.6l-.7-3.2a3.2 3.2 0 01-1.2-6.1l-.6-3.2A3.2 3.2 0 0169 51l-.6-3.1c-1.6.2-3.2-.9-3.5-2.5-.3-1.7.7-3.3 2.3-3.7l-.6-3.1c-1.6.2-3.2-1-3.5-2.6-.3-1.6.7-3.2 2.3-3.6l-.6-3.2a3.2 3.2 0 01-1.2-6.1l-.6-3.2a3.2 3.2 0 01-1.2-6.2l-.6-3.1a3.2 3.2 0 01-1.2-6.2L59.2 1l-2.6.5a3.2 3.2 0 01-6.2 1.2l-3.1.6a3.2 3.2 0 01-6.2 1.2L38 5a3.2 3.2 0 01-6.2 1.2l-3.2.7A3.2 3.2 0 0122.4 8l-3.1.6A3.2 3.2 0 0113 9.9l-3.2.6a3.2 3.2 0 01-6.2 1.2l-1.9.4.7 3.4c1.6-.1 3 1 3.3 2.5.3 1.6-.6 3.2-2.1 3.6l.6 3.2A3.2 3.2 0 015.5 31L6 34a3.2 3.2 0 011.2 6.2l.6 3.1c1.6 0 3 1 3.4 2.6.3 1.6-.7 3.1-2.2 3.6l.6 3.2a3.2 3.2 0 011.2 6.1l.6 3.2c1.6-.1 3 1 3.4 2.5.3 1.6-.6 3.2-2.2 3.7l.7 3.1a3.2 3.2 0 011.2 6.2l.6 3.1a3.2 3.2 0 011.2 6.2l.4 2.2 2-.4c-.2-1.6 1-3 2.5-3.3 1.6-.3 3.1.6 3.6 2.1L28 87c-.1-1.6 1-3 2.5-3.3 1.6-.3 3.1.6 3.6 2.1l3.2-.6a3.2 3.2 0 016.2-1.2l3.2-.6a3.2 3.2 0 016.1-1.2l3.2-.7c-.1-1.5 1-3 2.5-3.3 1.6-.3 3.2.7 3.7 2.2l3.1-.7c0-1.5 1-3 2.6-3.3 1.6-.3 3.1.6 3.6 2.1zm3.5.1l-4 .8V79a2.4 2.4 0 00-3-2 2.4 2.4 0 00-1.9 2.9l.1.3-4.6 1v-.4a2.4 2.4 0 00-4.8 1v.3l-4.5.9-.1-.4a2.4 2.4 0 00-2.8-1.9 2.4 2.4 0 00-2 2.8l.1.4-4.6.9v-.4a2.4 2.4 0 00-2.9-1.9 2.4 2.4 0 00-2 2.8l.1.4-4.5.9-.1-.4a2.4 2.4 0 00-2.8-1.9 2.4 2.4 0 00-2 2.9l.1.3-4.6 1V88a2.4 2.4 0 00-2.9-2 2.4 2.4 0 00-2 2.9l.1.3-3.3.7-.7-3.6h.3a2.4 2.4 0 10-.9-4.9l-.3.1-.1-.3-.8-4.2.3-.1a2.4 2.4 0 10-1-4.8H13l-.1-.3-.8-4.2h.3a2.4 2.4 0 10-.9-4.8h-.4v-.3l-.9-4.2h.4a2.4 2.4 0 10-1-4.9l-.3.1v-.3L8.1 49l.4-.1a2.4 2.4 0 10-1-4.8h-.3V44l-.9-4.2h.4a2.4 2.4 0 10-1-4.8h-.3v-.3l-.9-4.2H5a2.4 2.4 0 10-1-4.8h-.3l-.1-.3-.8-4.2.3-.1a2.4 2.4 0 10-.9-4.8H2l-.1-.3-.9-4.4 3.4-.7v.5a2.4 2.4 0 004.8-1V10l.3-.2 4.3-.8v.5a2.4 2.4 0 004.8-1l-.1-.4.4-.1 4.2-.8v.4a2.4 2.4 0 004.8-.9v-.5l4.6-.9v.5a2.4 2.4 0 004.8-1l-.1-.4 4.6-.9V4a2.4 2.4 0 004.8-1v-.3l.3-.2 4.3-.8v.5a2.4 2.4 0 004.8-1l-.1-.3.4-.2 3.6-.7 1 4.9h-.5a2.4 2.4 0 00-2 2.9 2.4 2.4 0 002.8 2l.6-.2.9 4.6h-.4L62 14v.4a2.4 2.4 0 001 4.8l.1-.1.4-.1.9 4.6-.5.1a2.4 2.4 0 00-2 2.9 2.4 2.4 0 002.9 1.9l.5-.2 1 4.7h-.6a2.4 2.4 0 00-2 2.9 2.4 2.4 0 002.9 2l.5-.2 1 4.6h-.6a2.4 2.4 0 00-2 3 2.4 2.4 0 003 1.8h.4l1 4.5-.6.1a2.4 2.4 0 00-2 2.9 2.4 2.4 0 003 1.9l.4-.2 1 4.7h-.4l-.3-.3.1.3a2.4 2.4 0 001 4.8l.5-.1.9 4.6H73a2.4 2.4 0 00-2 3 2.4 2.4 0 002.8 1.8l.6-.1.7 3.6z"/></g></svg>